<?xml version="1.0" encoding="UTF-8"?>
<!DOCTYPE svg PUBLIC "-//W3C//DTD SVG 1.1//EN" "http://www.w3.org/Graphics/SVG/1.1/DTD/svg11.dtd">
<!-- Creator: CorelDRAW 2020 (64-Bit) -->
<svg xmlns="http://www.w3.org/2000/svg" xml:space="preserve" width="673px" height="673px" version="1.1" style="shape-rendering:geometricPrecision; text-rendering:geometricPrecision; image-rendering:optimizeQuality; fill-rule:evenodd; clip-rule:evenodd"
viewBox="0 0 59.48 59.48"
 xmlns:xlink="http://www.w3.org/1999/xlink"
 xmlns:xodm="http://www.corel.com/coreldraw/odm/2003">
 <defs>
  <style type="text/css">
   <![CDATA[
    .fil0 {fill:none}
    .fil1 {fill:#FEFEFE}
   ]]>
  </style>
 </defs>
 <g id="Слой_x0020_1">
  <metadata id="CorelCorpID_0Corel-Layer"/>
  <rect class="fil0" width="59.48" height="59.48"/>
  <rect class="fil0" x="2.61" y="2.61" width="54.26" height="54.26"/>
  <path class="fil1" d="M2.61 2.61l54.26 0 0 16.93 -12.33 -6.23 -18.98 9.57 0 -8.12 -13.58 0 0 14.95 -9.37 4.76 0 -31.86zm2.61 2.61l49.04 0 0 10.4 -9.72 -4.92 -16.37 8.25 0 -6.79 -18.8 0 0 16.26 -4.16 2.11 0.01 -25.31z"/>
  <path class="fil1" d="M2.61 37.04l11.98 -6.03 -0.01 -13.63 8.37 0 -0.01 9.42 21.6 -10.88 12.33 6.22 0 34.73 -54.26 0 0 -19.83zm15.35 3.73l0 13.19 -4.61 0 0 -5.53 -1.34 0 0 5.53 -4.61 0 0 -13.19 4.61 0 0 4.72 1.34 0 0 -4.72 4.61 0zm1.86 0l7.68 0 0 2.64 -3.07 0 0 2.52 2.86 0 0 2.5 -2.86 0 0 2.9 3.38 0 0 2.63 -7.99 0 0 -13.19zm19.79 7.74c0,1.32 -0.04,2.26 -0.12,2.81 -0.09,0.55 -0.35,1.05 -0.79,1.51 -0.44,0.46 -1.03,0.81 -1.78,1.05 -0.75,0.25 -1.63,0.37 -2.62,0.37 -0.95,0 -1.8,-0.12 -2.55,-0.35 -0.75,-0.23 -1.36,-0.57 -1.81,-1.04 -0.46,-0.46 -0.74,-0.96 -0.83,-1.5 -0.08,-0.55 -0.13,-1.5 -0.13,-2.85l0 -2.26c0,-1.33 0.05,-2.26 0.13,-2.81 0.08,-0.56 0.34,-1.06 0.78,-1.52 0.44,-0.45 1.04,-0.8 1.79,-1.05 0.75,-0.24 1.62,-0.36 2.62,-0.36 0.95,0 1.79,0.11 2.55,0.34 0.75,0.23 1.36,0.58 1.81,1.04 0.46,0.46 0.73,0.96 0.82,1.51 0.09,0.54 0.13,1.49 0.13,2.85l0 2.26zm-4.61 -4.34c0,-0.61 -0.04,-1 -0.13,-1.17 -0.09,-0.17 -0.27,-0.26 -0.55,-0.26 -0.23,0 -0.41,0.07 -0.54,0.21 -0.12,0.14 -0.19,0.54 -0.19,1.22l0 6.16c0,0.76 0.04,1.24 0.13,1.41 0.08,0.18 0.27,0.27 0.57,0.27 0.3,0 0.5,-0.1 0.59,-0.31 0.08,-0.2 0.12,-0.69 0.12,-1.47l0 -6.06zm17.08 2.36l-4.61 0 0 -2.29c0,-0.67 -0.04,-1.08 -0.14,-1.25 -0.1,-0.17 -0.31,-0.25 -0.65,-0.25 -0.37,0 -0.61,0.1 -0.71,0.3 -0.1,0.2 -0.15,0.64 -0.15,1.3l0 6.13c0,0.64 0.05,1.05 0.15,1.25 0.1,0.2 0.33,0.29 0.68,0.29 0.34,0 0.56,-0.09 0.67,-0.29 0.1,-0.2 0.15,-0.66 0.15,-1.38l0 -1.66 4.61 0 0 0.51c0,1.37 -0.13,2.34 -0.38,2.91 -0.26,0.57 -0.84,1.07 -1.72,1.5 -0.89,0.43 -1.98,0.65 -3.27,0.65 -1.35,0 -2.46,-0.18 -3.34,-0.55 -0.87,-0.36 -1.45,-0.86 -1.74,-1.51 -0.28,-0.64 -0.42,-1.61 -0.42,-2.9l0 -3.86c0,-0.95 0.04,-1.66 0.13,-2.13 0.09,-0.48 0.35,-0.94 0.78,-1.38 0.44,-0.44 1.04,-0.78 1.8,-1.04 0.77,-0.25 1.66,-0.37 2.66,-0.37 1.35,0 2.47,0.19 3.35,0.58 0.88,0.39 1.46,0.88 1.74,1.46 0.28,0.59 0.41,1.49 0.41,2.72l0 1.26z"/>
 </g>
</svg>
