<?xml version="1.0" encoding="UTF-8"?>
<!DOCTYPE svg PUBLIC "-//W3C//DTD SVG 1.1//EN" "http://www.w3.org/Graphics/SVG/1.1/DTD/svg11.dtd">
<!-- Creator: CorelDRAW 2020 (64-Bit) -->
<svg xmlns="http://www.w3.org/2000/svg" xml:space="preserve" width="673px" height="673px" version="1.1" style="shape-rendering:geometricPrecision; text-rendering:geometricPrecision; image-rendering:optimizeQuality; fill-rule:evenodd; clip-rule:evenodd"
viewBox="0 0 89.24 89.24"
 xmlns:xlink="http://www.w3.org/1999/xlink"
 xmlns:xodm="http://www.corel.com/coreldraw/odm/2003">
 <defs>
  <style type="text/css">
   <![CDATA[
    .fil1 {fill:none}
    .fil2 {fill:#FEFEFE}
    .fil3 {fill:#FEFEFE}
    .fil0 {fill:#396990}
    .fil4 {fill:#396990;fill-rule:nonzero}
   ]]>
  </style>
 </defs>
 <g id="Слой_x0020_1">
  <metadata id="CorelCorpID_0Corel-Layer"/>
  <g id="_2810335431168">
   <rect class="fil0" width="89.24" height="89.24"/>
   <rect class="fil1" x="3.91" y="3.91" width="81.41" height="81.41"/>
   <polygon class="fil2" points="3.91,3.91 85.33,3.91 85.33,29.31 66.83,19.97 38.35,34.32 38.35,22.15 17.97,22.15 17.97,44.57 3.91,51.71 "/>
   <polygon class="fil3" points="3.91,55.57 21.88,46.52 21.88,26.07 34.43,26.07 34.42,40.21 66.83,23.89 85.33,33.22 85.33,85.32 3.91,85.32 "/>
   <polygon class="fil0" points="7.83,7.83 81.41,7.83 81.41,23.44 66.83,16.06 42.26,28.42 42.26,18.24 14.06,18.24 14.06,42.64 7.82,45.81 "/>
   <polygon class="fil4" points="26.95,61.17 26.95,80.96 20.03,80.96 20.03,72.66 18.02,72.66 18.02,80.96 11.1,80.96 11.1,61.17 18.02,61.17 18.02,68.25 20.03,68.25 20.03,61.17 "/>
   <polygon id="1" class="fil4" points="29.74,61.17 41.25,61.17 41.25,65.12 36.65,65.12 36.65,68.9 40.95,68.9 40.95,72.66 36.65,72.66 36.65,77.01 41.72,77.01 41.72,80.96 29.74,80.96 "/>
   <path id="2" class="fil4" d="M59.43 72.77c0,1.99 -0.06,3.4 -0.19,4.22 -0.12,0.83 -0.51,1.59 -1.17,2.27 -0.66,0.69 -1.56,1.21 -2.68,1.58 -1.13,0.36 -2.44,0.55 -3.93,0.55 -1.42,0 -2.69,-0.18 -3.82,-0.52 -1.13,-0.35 -2.05,-0.87 -2.73,-1.56 -0.69,-0.69 -1.1,-1.45 -1.23,-2.26 -0.13,-0.82 -0.2,-2.24 -0.2,-4.28l0 -3.38c0,-1.99 0.07,-3.4 0.19,-4.22 0.13,-0.83 0.52,-1.59 1.18,-2.27 0.66,-0.69 1.56,-1.21 2.68,-1.58 1.12,-0.37 2.43,-0.55 3.93,-0.55 1.42,0 2.69,0.18 3.82,0.52 1.13,0.35 2.04,0.87 2.72,1.56 0.69,0.69 1.1,1.45 1.23,2.26 0.13,0.82 0.2,2.24 0.2,4.28l0 3.38zm-6.91 -6.5c0,-0.92 -0.07,-1.5 -0.21,-1.76 -0.13,-0.26 -0.4,-0.39 -0.82,-0.39 -0.35,0 -0.62,0.11 -0.81,0.32 -0.18,0.2 -0.28,0.81 -0.28,1.83l0 9.24c0,1.15 0.06,1.85 0.19,2.12 0.12,0.27 0.4,0.41 0.85,0.41 0.46,0 0.76,-0.16 0.88,-0.47 0.13,-0.31 0.2,-1.04 0.2,-2.21l0 -9.09z"/>
   <path id="3" class="fil4" d="M78.14 69.8l-6.91 0 0 -3.43c0,-1 -0.08,-1.62 -0.22,-1.87 -0.15,-0.25 -0.47,-0.38 -0.97,-0.38 -0.56,0 -0.92,0.15 -1.07,0.45 -0.15,0.31 -0.23,0.96 -0.23,1.96l0 9.18c0,0.97 0.08,1.59 0.23,1.89 0.15,0.29 0.49,0.44 1.02,0.44 0.51,0 0.84,-0.15 1,-0.45 0.16,-0.29 0.24,-0.98 0.24,-2.07l0 -2.49 6.91 0 0 0.77c0,2.05 -0.2,3.51 -0.58,4.36 -0.39,0.86 -1.25,1.61 -2.57,2.26 -1.34,0.65 -2.97,0.97 -4.92,0.97 -2.02,0 -3.68,-0.27 -5,-0.82 -1.31,-0.55 -2.18,-1.3 -2.61,-2.27 -0.42,-0.97 -0.63,-2.42 -0.63,-4.36l0 -5.78c0,-1.42 0.06,-2.49 0.19,-3.2 0.14,-0.72 0.52,-1.4 1.18,-2.06 0.65,-0.66 1.55,-1.18 2.7,-1.56 1.15,-0.38 2.48,-0.57 3.98,-0.57 2.03,0 3.71,0.29 5.03,0.88 1.32,0.58 2.19,1.31 2.61,2.19 0.41,0.88 0.62,2.24 0.62,4.08l0 1.88z"/>
  </g>
 </g>
</svg>
